<svg xmlns="http://www.w3.org/2000/svg" viewBox="0 0 24 24" width="24" height="24" role="img" aria-labelledby="frontier-title">
  <title id="frontier-title">Frontier AI Coding Harness</title>
    <path fill="#005BF8" d="M 10.344 10.353 L 16.459 10.353 Q 16.519 10.353 16.575 10.374 L 16.698 10.420 Q 16.752 10.440 16.766 10.496 L 16.797 10.617 Q 16.810 10.673 16.771 10.716 L 14.382 13.302 Q 14.332 13.356 14.259 13.356 L 10.965 13.384 Q 10.892 13.385 10.892 13.458 L 10.892 18.327 Q 10.892 18.399 10.841 18.451 L 8.116 21.176 Q 8.064 21.227 7.992 21.239 L 7.783 21.274 Q 7.714 21.286 7.665 21.237 L 7.559 21.131 Q 7.510 21.082 7.510 21.012 L 7.510 12.875 Q 7.510 12.802 7.563 12.751 L 9.971 10.456 Q 10.017 10.411 10.080 10.397 L 10.217 10.367 Q 10.280 10.353 10.344 10.353 Z"/>
    <path fill="#005AF8" d="M 9.711 5.805 L 17.174 5.805 Q 17.219 5.805 17.254 5.833 L 17.329 5.893 Q 17.364 5.921 17.364 5.966 L 17.364 6.099 Q 17.364 6.155 17.326 6.195 L 14.995 8.609 Q 14.945 8.662 14.872 8.663 L 10.528 8.719 Q 10.455 8.720 10.403 8.771 L 7.744 11.402 Q 7.714 11.431 7.672 11.431 L 7.581 11.431 Q 7.539 11.431 7.539 11.390 L 7.539 7.831 Q 7.539 7.758 7.593 7.708 L 9.585 5.854 Q 9.638 5.805 9.711 5.805 Z"/>
    <path fill="#01C9FD" d="M 6.293 8.549 L 6.512 8.658 Q 6.577 8.691 6.577 8.764 L 6.577 10.309 Q 6.577 10.382 6.525 10.432 L 4.275 12.598 Q 4.245 12.627 4.245 12.669 L 4.245 12.760 Q 4.245 12.802 4.276 12.830 L 6.466 14.880 Q 6.519 14.930 6.521 15.003 L 6.575 16.702 Q 6.577 16.767 6.535 16.816 L 6.444 16.922 Q 6.402 16.971 6.339 16.960 L 6.124 16.925 Q 6.052 16.913 6.001 16.861 L 2.130 13.048 Q 2.087 13.006 2.066 12.950 L 2.021 12.829 Q 2.000 12.773 2.014 12.715 L 2.070 12.493 Q 2.087 12.423 2.140 12.373 L 6.174 8.566 Q 6.227 8.516 6.293 8.549 Z"/>
    <path fill="#01C9FD" d="M 17.836 9.252 L 17.972 9.267 Q 18.035 9.274 18.082 9.316 L 18.243 9.459 Q 18.297 9.507 18.350 9.558 L 21.947 13.014 Q 22.000 13.064 21.994 13.137 L 21.977 13.341 Q 21.971 13.414 21.918 13.464 L 17.896 17.258 Q 17.860 17.292 17.811 17.285 L 17.705 17.269 Q 17.656 17.262 17.624 17.224 L 17.545 17.129 Q 17.510 17.087 17.510 17.033 L 17.510 15.440 Q 17.510 15.367 17.563 15.317 L 19.469 13.494 Q 19.522 13.443 19.557 13.379 L 19.662 13.186 Q 19.697 13.122 19.644 13.072 L 17.621 11.132 Q 17.569 11.082 17.569 11.009 L 17.569 9.518 Q 17.569 9.449 17.617 9.400 L 17.728 9.290 Q 17.773 9.245 17.836 9.252 Z"/>
    <path fill="#5C42FD" d="M 19.010 2.728 L 19.101 2.759 Q 19.143 2.773 19.152 2.816 L 19.259 3.330 Q 19.289 3.472 19.360 3.599 L 19.626 4.074 Q 19.697 4.201 19.812 4.291 L 20.253 4.636 Q 20.367 4.726 20.507 4.767 L 21.120 4.949 Q 21.155 4.959 21.148 4.994 L 21.132 5.070 Q 21.125 5.105 21.090 5.112 L 20.771 5.171 Q 20.659 5.192 20.556 5.241 L 20.327 5.348 Q 20.222 5.397 20.133 5.471 L 19.809 5.740 Q 19.697 5.834 19.623 5.959 L 19.392 6.350 Q 19.318 6.475 19.278 6.615 L 19.096 7.251 Q 19.085 7.292 19.043 7.285 L 18.952 7.269 Q 18.910 7.262 18.900 7.221 L 18.740 6.559 Q 18.706 6.417 18.627 6.294 L 18.376 5.898 Q 18.297 5.776 18.181 5.687 L 17.801 5.397 Q 17.685 5.309 17.545 5.268 L 16.943 5.089 Q 16.898 5.076 16.919 5.034 L 16.964 4.943 Q 16.985 4.901 17.032 4.896 L 17.207 4.879 Q 17.277 4.872 17.342 4.844 L 17.698 4.694 Q 17.831 4.638 17.938 4.542 L 18.276 4.240 Q 18.385 4.143 18.458 4.017 L 18.633 3.715 Q 18.706 3.589 18.747 3.449 L 18.955 2.757 Q 18.968 2.714 19.010 2.728 Z"/>
</svg>
